# xmcd
#
# Track frame offsets:
#	150
#	11969
#	24505
#	35460
#	46809
#	56266
#	66093
#	77046
#	90907
#	102193
#	113832
#	125951
#	137792
#	150720
#	163133
#	174778
#	185422
#	196703
#	208082
#	218536
#
# Disc length: 3059 seconds
#
# Revision: 1
# Processed by: cddbd v1.5.1PL0 Copyright (c) Steve Scherf et al.
# Submitted via: audiograbber 1.83.01
#
DISCID=070bf114
DTITLE=Ferlin Husky - Collectors Series
DYEAR=1989
DGENRE=Country
TTITLE0=I feel better all the time
TTITLE1=I'll Baby sit with you
TTITLE2=Gone
TTITLE3=A fallen star
TTITLE4=My reason for living
TTITLE5=Draggin the river
TTITLE6=Wings of a dove
TTITLE7=The waltz you saved for me
TTITLE8=Somebody save me
TTITLE9=It was you
TTITLE10=Timber, I'm falling
TTITLE11=I could sing all night
TTITLE12=I hear Little Rock calling
TTITLE13=Once
TTITLE14=You pushed me too far
TTITLE15=Just for you
TTITLE16=That's why I love you so much
TTITLE17=Every Step of the way
TTITLE18=Heavenly Sunshine
TTITLE19=Sweet Misery
EXTD=
EXTT0=
EXTT1=
EXTT2=
EXTT3=
EXTT4=
EXTT5=
EXTT6=
EXTT7=
EXTT8=
EXTT9=
EXTT10=
EXTT11=
EXTT12=
EXTT13=
EXTT14=
EXTT15=
EXTT16=
EXTT17=
EXTT18=
EXTT19=
PLAYORDER=
